<svg width="20" height="21" viewBox="0 0 20 21" fill="none" xmlns="http://www.w3.org/2000/svg">
<path d="M12.9335 3.23406L12.9337 3.23424L12.9338 3.23439L12.9339 3.23446L12.934 3.23457L13.1361 3.43413L13.4197 3.4493L13.4199 3.44931L13.42 3.44931L13.4202 3.44932L13.4204 3.44933L13.4228 3.44948L13.4385 3.45047C13.4533 3.45145 13.4765 3.45309 13.5071 3.45555C13.5684 3.46049 13.6593 3.46872 13.7722 3.48161C13.9992 3.50752 14.3101 3.55168 14.6474 3.6242C15.3679 3.77911 16.0329 4.0283 16.3642 4.36188C16.7078 4.70796 16.9487 5.40448 17.0866 6.16212C17.1511 6.51652 17.1863 6.8434 17.2051 7.08209C17.2145 7.2009 17.2197 7.29648 17.2226 7.36106C17.224 7.39331 17.2249 7.41773 17.2254 7.43334L17.2258 7.44997L17.2259 7.45259L17.2259 7.45285L17.2259 7.45305V7.45308L17.2259 7.45329L17.2306 7.72873L17.4128 7.93538L17.4129 7.93555L17.413 7.9357L17.4132 7.93589L17.415 7.93789L17.4257 7.95034C17.4358 7.96203 17.4514 7.98037 17.4718 8.00482C17.5127 8.05375 17.5726 8.12684 17.645 8.21963C17.7906 8.40599 17.9839 8.66777 18.176 8.96983C18.5847 9.61265 18.892 10.2919 18.892 10.7912C18.892 11.2904 18.5847 11.9697 18.176 12.6125C17.9839 12.9145 17.7906 13.1763 17.645 13.3627C17.5726 13.4555 17.5127 13.5286 17.4718 13.5775C17.4514 13.6019 17.4358 13.6203 17.4257 13.632L17.415 13.6444L17.4132 13.6464L17.413 13.6466L17.4129 13.6468L17.4128 13.6469L17.2306 13.8536L17.2259 14.129L17.2259 14.1292V14.1293L17.2259 14.1295L17.2259 14.1297L17.2258 14.1323L17.2254 14.149C17.2249 14.1646 17.224 14.189 17.2226 14.2213C17.2197 14.2858 17.2145 14.3814 17.2051 14.5002C17.1863 14.7389 17.1511 15.0658 17.0866 15.4202C16.9487 16.1778 16.7078 16.8744 16.3642 17.2204C16.0329 17.554 15.3679 17.8032 14.6474 17.9581C14.3101 18.0306 13.9992 18.0748 13.7722 18.1007C13.6593 18.1136 13.5684 18.1218 13.5071 18.1268C13.4765 18.1292 13.4533 18.1309 13.4385 18.1318L13.4228 18.1328L13.4204 18.133L13.4202 18.133L13.42 18.133L13.4199 18.133L13.4197 18.133L13.1361 18.1482L12.934 18.3477L12.9339 18.3479L12.9338 18.3479L12.9337 18.3481L12.9335 18.3483L12.9318 18.3499L12.9203 18.361C12.9095 18.3714 12.8924 18.3877 12.8697 18.4089C12.824 18.4515 12.7558 18.514 12.6689 18.5896C12.4944 18.7417 12.2491 18.9433 11.9652 19.1433C11.3557 19.5728 10.7258 19.8809 10.2677 19.8809C9.80955 19.8809 9.17966 19.5728 8.57017 19.1433C8.28625 18.9433 8.04096 18.7417 7.86642 18.5896C7.77957 18.514 7.7113 18.4515 7.66568 18.4089C7.6429 18.3877 7.62584 18.3714 7.61501 18.361L7.60355 18.3499L7.60187 18.3483L7.60168 18.3481L7.60153 18.3479L7.60146 18.3479L7.60135 18.3477L7.39926 18.1482L7.11562 18.133L7.11545 18.133L7.11538 18.133L7.11518 18.133L7.11492 18.133L7.11254 18.1328L7.09682 18.1318C7.08204 18.1309 7.05886 18.1292 7.02823 18.1268C6.96691 18.1218 6.87606 18.1136 6.7631 18.1007C6.53616 18.0748 6.2252 18.0306 5.88793 17.9581C5.16746 17.8032 4.50245 17.554 4.17119 17.2204C3.82752 16.8744 3.58661 16.1778 3.44871 15.4202C3.38421 15.0658 3.34909 14.7389 3.33024 14.5002C3.32086 14.3814 3.31561 14.2858 3.31274 14.2213C3.3113 14.189 3.31046 14.1646 3.30999 14.149L3.30954 14.1323L3.30948 14.1297L3.30947 14.1295L3.30947 14.1293L3.30947 14.1292L3.30947 14.129L3.30479 13.8536L3.12257 13.6469L3.12242 13.6468L3.1223 13.6466L3.12213 13.6464L3.12039 13.6444L3.10962 13.632C3.09958 13.6203 3.08394 13.6019 3.06351 13.5775C3.02262 13.5286 2.96277 13.4555 2.8903 13.3627C2.74474 13.1763 2.55142 12.9145 2.35935 12.6125C1.9506 11.9697 1.64332 11.2904 1.64332 10.7912C1.64332 10.2919 1.9506 9.61265 2.35935 8.96983C2.55142 8.66777 2.74474 8.40599 2.8903 8.21963C2.96277 8.12684 3.02262 8.05375 3.06351 8.00482C3.08394 7.98037 3.09958 7.96203 3.10962 7.95034L3.12039 7.93789L3.12213 7.93589L3.1223 7.9357L3.12243 7.93555L3.12257 7.93538L3.30479 7.72873L3.30947 7.45329L3.30947 7.45308L3.30947 7.45305L3.30947 7.45285L3.30948 7.45259L3.30954 7.44997L3.30999 7.43334C3.31046 7.41773 3.3113 7.39331 3.31274 7.36106C3.31561 7.29648 3.32086 7.2009 3.33024 7.08209C3.34909 6.8434 3.38421 6.51652 3.44871 6.16212C3.58661 5.40448 3.82752 4.70796 4.17119 4.36188C4.50245 4.0283 5.16746 3.77911 5.88793 3.6242C6.2252 3.55168 6.53616 3.50752 6.7631 3.48161C6.87606 3.46872 6.96691 3.46049 7.02823 3.45555C7.05886 3.45309 7.08204 3.45145 7.09682 3.45047L7.11254 3.44948L7.11492 3.44933L7.11518 3.44932L7.11538 3.44931L7.11545 3.44931L7.11562 3.4493L7.39926 3.43413L7.60135 3.23457L7.60146 3.23446L7.60153 3.23439L7.60168 3.23424L7.60187 3.23406L7.60355 3.23242L7.61501 3.22132C7.62584 3.21091 7.6429 3.19465 7.66568 3.17337C7.7113 3.13077 7.77957 3.06832 7.86642 2.99268C8.04096 2.84066 8.28625 2.63905 8.57017 2.43898C9.17966 2.00948 9.80955 1.70142 10.2677 1.70142C10.7258 1.70142 11.3557 2.00948 11.9652 2.43898C12.2491 2.63905 12.4944 2.84066 12.6689 2.99268C12.7558 3.06832 12.824 3.13077 12.8697 3.17337C12.8924 3.19465 12.9095 3.21091 12.9203 3.22132L12.9318 3.23242L12.9335 3.23406Z" stroke="white" stroke-width="1.5"/>
<path d="M6.17886 10.6582L9.23716 13.8495L14.3565 8.33122" stroke="white" stroke-width="2" stroke-linecap="round" stroke-linejoin="round"/>
</svg>
