<svg width="42" height="42" viewBox="0 0 42 42" fill="none" xmlns="http://www.w3.org/2000/svg">
<path fill-rule="evenodd" clip-rule="evenodd" d="M8.01985 11.1101C8.97643 10.5578 10.1996 10.8855 10.7519 11.8421L13.1037 15.9156L21.8582 10.8612L19.5064 6.7877C18.9541 5.83112 19.2819 4.60794 20.2385 4.05565C21.195 3.50337 22.4182 3.83112 22.9705 4.7877L25.3223 8.86118L28.5017 7.02558C29.4583 6.47329 30.6815 6.80104 31.2338 7.75763C31.786 8.71422 31.4583 9.9374 30.5017 10.4897L27.3223 12.3253L31.7613 20.0138L34.9407 18.1782C35.8972 17.6259 37.1204 17.9537 37.6727 18.9102C38.225 19.8668 37.8972 21.09 36.9407 21.6423L33.7613 23.4779L35.9705 27.3044C36.5228 28.2609 36.195 29.4841 35.2385 30.0364C34.2819 30.5887 33.0587 30.2609 32.5064 29.3044L30.2972 25.4779L21.5427 30.5323L23.7519 34.3588C24.3042 35.3154 23.9764 36.5386 23.0198 37.0908C22.0633 37.6431 20.8401 37.3154 20.2878 36.3588L18.0786 32.5323L14.4214 34.6438C13.4648 35.1961 12.2416 34.8683 11.6894 33.9117C11.1371 32.9552 11.4648 31.732 12.4214 31.1797L16.0786 29.0682L11.6396 21.3797L7.98244 23.4912C7.02586 24.0435 5.80268 23.7157 5.25039 22.7591C4.69811 21.8025 5.02586 20.5794 5.98244 20.0271L9.63962 17.9156L7.2878 13.8421C6.73551 12.8855 7.06326 11.6624 8.01985 11.1101ZM28.2972 22.0138L23.8582 14.3253L15.1037 19.3797L19.5427 27.0682L28.2972 22.0138Z" fill="black"/>
</svg>
